<svg width="39" height="24" viewBox="0 0 39 24" fill="none" xmlns="http://www.w3.org/2000/svg">
<path fill-rule="evenodd" clip-rule="evenodd" d="M8.18634 7.35947L8.32344 7.3606C9.91853 7.38687 11.4027 7.87058 12.6509 8.68636L12.7605 8.7592L12.8284 8.80546L12.7584 8.7513L12.8568 8.82509L12.9259 8.87383L13.068 8.97753C13.162 9.04763 13.2544 9.11969 13.3453 9.19363L13.4804 9.30596L13.5229 9.34274L15.8988 11.195L21.4366 15.5372L22.7366 16.5496L23.4111 17.0684L23.7269 17.3079L23.9985 17.5107L24.2242 17.6753L24.3369 17.755L24.4023 17.8L24.4985 17.8644C25.4518 18.4938 26.148 18.6906 27.111 18.7027L27.2082 18.7033L27.2896 18.7026C29.7551 18.6616 31.7699 16.7632 32.0016 14.3431L32.0085 14.2631H37.0727L37.0654 14.4214C36.7861 19.5809 32.5635 23.6888 27.366 23.7704L27.2082 23.7717L27.0694 23.7706C24.6706 23.7342 22.6263 22.755 20.7811 21.375L11.2917 14.1958L10.1649 13.353L10.0089 13.2406L9.85717 13.1339C9.25735 12.7191 8.73664 12.4502 8.03423 12.4294L7.94546 12.4281L7.87461 12.4289C6.20222 12.4661 4.85338 13.8182 4.81624 15.4945L4.81545 15.5656L4.81624 15.6366C4.85338 17.3132 6.20222 18.6653 7.87461 18.7025L7.94546 18.7033L8.02264 18.7049C9.30524 18.718 10.4244 17.9952 11.3801 16.5363L11.4384 16.4461L15.4423 19.3694L15.3946 19.4593C14.0274 21.9972 11.3648 23.731 8.29485 23.771L8.18634 23.7717L8.05096 23.7706C3.59217 23.6981 0 20.0523 0 15.5656C0 11.0789 3.59217 7.43304 8.05096 7.36057L8.18634 7.35947ZM30.2704 2.53253L30.3581 2.58212C30.7921 2.82393 31.1626 2.97388 31.4691 3.03227L31.5295 3.04273L31.5901 3.05094C31.898 3.08658 32.2828 3.04163 32.7438 2.9167L32.837 2.89064L35.1208 5.17967L30.2567 10.0551H35.7175V8.26525H37.1013L37.1282 8.36024C37.2464 8.76686 37.3812 9.08054 37.5326 9.30172L37.5653 9.3477L37.6023 9.39537C37.7705 9.60283 38.0333 9.80823 38.3905 10.0116L38.4685 10.0551V12.851H31.8658L31.8432 12.7461C31.6054 11.7014 31.029 10.7856 30.2365 10.1208L30.133 10.0365C29.3391 9.40686 28.3422 9.02282 27.2571 8.9987L27.1483 8.99749L27.0065 8.99957C26.9438 9.00141 26.8814 9.00445 26.8193 9.00864L26.7264 9.01577L30.6139 5.11897L29.152 3.65358L30.2704 2.53253ZM26.7264 9.01577C24.9671 9.16783 23.4785 10.2677 22.7709 11.8032C22.7657 11.8141 22.7498 11.8107 22.7498 11.7985L22.75 3.89206H20.2039V1.93385C20.891 1.74633 21.404 1.52745 21.7435 1.27765C22.083 1.02762 22.4186 0.601817 22.75 0H26.7264V9.01577Z" fill="url(#paint0_linear_264_16514)"/>
<defs>
<linearGradient id="paint0_linear_264_16514" x1="38.4685" y1="11.8858" x2="-7" y2="11.8858" gradientUnits="userSpaceOnUse">
<stop stop-color="#1B68FC"/>
<stop offset="1" stop-color="#7B4CFF"/>
</linearGradient>
</defs>
</svg>
