<svg xmlns="http://www.w3.org/2000/svg" xmlns:xlink="http://www.w3.org/1999/xlink" fill="none" version="1.1" width="121" height="75" viewBox="0 0 121 75"><defs><clipPath id="master_svg0_124_035"><rect x="0" y="0" width="121" height="75" rx="0"/></clipPath><clipPath id="master_svg1_124_040"><rect x="32" y="9" width="57" height="57" rx="0"/></clipPath><linearGradient x1="1" y1="0.5001088380813599" x2="-0.18394659459590912" y2="0.5001088380813599" id="master_svg2_124_034"><stop offset="0%" stop-color="#1B68FC" stop-opacity="1"/><stop offset="100%" stop-color="#7B4CFF" stop-opacity="1"/></linearGradient></defs><g clip-path="url(#master_svg0_124_035)"><rect x="0" y="0" width="121" height="75" rx="0" fill="#FFFFFF" fill-opacity="1"/><g clip-path="url(#master_svg1_124_040)"><rect x="32" y="9" width="57" height="57" rx="0" fill="#FFFFFF" fill-opacity="1"/><g><g><g><g><g><path d="M40.9490244140625,50.94489806640625L38.6191544140625,50.94489806640625L38.7046544140625,51.57189806640625L40.9490244140625,51.57189806640625L40.9490244140625,50.94489806640625ZM40.9490244140625,50.07564806640625L38.6191544140625,50.07564806640625L38.7046544140625,50.70263806640625L40.9490244140625,50.70263806640625L40.9490244140625,50.07564806640625ZM36.8093944140625,50.07564806640625L34.4795244140625,50.07564806640625L34.5650244140625,50.70263806640625L36.7880244140625,50.70263806640625L36.8093944140625,50.07564806640625ZM36.8093944140625,50.94489806640625L34.4795244140625,50.94489806640625L34.5650244140625,51.57189806640625L36.7880244140625,51.57189806640625L36.8093944140625,50.94489806640625ZM39.2105244140625,53.90889806640625L39.2105244140625,53.08239806640625C38.3917144140625,52.91676806640625,37.5637444140625,52.80017806640625,36.7310244140625,52.733268066406254C37.0871644140625,52.59710806640625,37.4191344140625,52.40466806640625,37.7142744140625,52.163268066406246C39.1388244140625,53.16162806640625,40.8039744140625,53.76177806640625,42.5378944140625,53.90176806640625L42.765924414062496,52.82589806640625C40.8136444140625,52.66914806640625,39.2033944140625,52.163268066406246,38.3412744140625,51.40089806640625L37.0872744140625,51.40089806640625C36.2607744140625,52.11339806640625,34.7930244140625,52.54089806640625,32.7125244140625,52.76889806640625L32.9333974140625,53.80201806640625C34.0042144140625,53.62281806640625,35.0595044140625,53.36078806640625,36.089774414062504,53.01826806640625L36.089774414062504,53.53126806640625C37.1304444140625,53.59708806640625,38.1657444140625,53.73036806640625,39.1891444140625,53.93026806640625L39.2105244140625,53.90889806640625ZM34.0306544140625,53.90889806640625L34.1375344140625,54.79239806640625L39.6024044140625,54.79239806640625C38.8162744140625,55.16698806640625,37.992174414062504,55.45602806640625,37.1442844140625,55.654518066406254C36.3462744140625,55.52626806640625,35.5482844140625,55.40514806640625,34.6434044140625,55.29114806640625L34.6434044140625,56.23876806640625C36.6597844140625,56.53089806640625,38.4054044140625,56.85151806640625,40.4645244140625,57.32889806640625L40.4645244140625,56.31001806640625C40.0085244140625,56.20314806640625,39.5810344140625,56.11051806640625,39.1606544140625,56.02501806640625C39.8825144140625,55.79542806640625,40.5562444140625,55.43562806640625,41.1485244140625,54.96339806640625C41.6116544140625,54.58576806640625,41.4192744140625,53.90888806640625,40.6782744140625,53.90888806640625L34.0306544140625,53.90889806640625ZM38.3056544140625,49.76927806640625L41.1556544140625,49.76927806640625C41.2164644140625,49.76473806640625,41.2670644140625,49.81534806640625,41.2625244140625,49.87614806640625L41.2625244140625,51.30114806640625L42.3027744140625,51.30114806640625L42.3027744140625,49.66239806640625C42.3430844140625,49.22647806640625,41.9844144140625,48.85764806640625,41.5475344140625,48.88577806640625L38.2985244140625,48.88577806640625L38.2985244140625,48.58652806640625L41.8610244140625,48.58652806640625L41.8610244140625,47.76002006640625L33.5532744140625,47.76002006640625L33.6601504140625,48.64351806640625L37.130024414062504,48.64351806640625L37.130024414062504,48.94276806640625L33.8881444140625,48.94276806640625C33.4428974140625,48.90051806640625,33.0692694140625,49.27414806640625,33.1115224140625,49.71939806640625L33.1115224140625,51.35814806640625L34.1517744140625,51.35814806640625L34.1517744140625,49.93314806640625C34.1477144140625,49.87014806640625,34.1956244140625,49.81583806640625,34.2586444140625,49.81201806640625L37.108644414062496,49.81201806640625L37.108644414062496,51.23701806640625L38.2771444140625,51.23701806640625L38.3056544140625,49.76927806640625ZM48.0740244140625,51.42939806640625L48.0740244140625,52.59789806640625L49.3422244140625,52.59789806640625L49.3422244140625,51.65739806640625C49.3422244140625,51.55051806640625,49.3992244140625,51.50064806640625,49.5061244140625,51.50064806640625L56.082524414062505,51.50064806640625C56.1750244140625,51.48441806640625,56.2555244140625,51.56492806640625,56.2393244140625,51.65739806640625L56.2393244140625,52.57651806640625L57.514624414062496,52.57651806640625L57.514624414062496,51.40801806640625C57.5875244140625,50.90573806640625,57.1542244140625,50.47593806640625,56.6525244140625,50.55302806640625L48.929024414062496,50.55302806640625C48.419824414062504,50.47743806640625,47.9859244140625,50.92222806640625,48.0740244140625,51.42939806640625ZM55.9115244140625,52.74751806640625L55.9115244140625,51.84264806640625L49.6415244140625,51.84264806640625L49.7341244140625,52.74751806640625L55.9115244140625,52.74751806640625ZM56.624024414062504,54.592888066406246L56.624024414062504,53.79489806640625C56.6613244140625,53.38692806640625,56.3195244140625,53.04505806640625,55.9115244140625,53.08239806640625L49.7555244140625,53.08239806640625C49.3620244140625,53.08239806640625,49.0430244140625,53.40138806640625,49.0430244140625,53.79489806640625L49.0430244140625,54.59289806640625C49.0430244140625,54.98639806640625,49.3620244140625,55.30539806640625,49.7555244140625,55.30539806640625L55.9115244140625,55.30539806640625C56.3050244140625,55.30539806640625,56.624024414062504,54.98639806640625,56.624024414062504,54.592888066406246ZM50.3112244140625,54.27938806640625L50.3112244140625,54.10126806640625C50.306124414062495,54.03335806640625,50.3649244140625,53.97798806640625,50.432424414062496,53.98725806640625L55.1990244140625,53.98725806640625C55.2665244140625,53.97798806640625,55.3253244140625,54.03335806640625,55.320124414062505,54.10126806640625L55.320124414062505,54.27938806640625C55.3253244140625,54.34729806640625,55.2665244140625,54.40266806640625,55.1990244140625,54.39338806640625L50.460924414062504,54.39338806640625C50.3934244140625,54.40266806640625,50.3346244140625,54.34730806640625,50.3397244140625,54.27939806640625L50.3112244140625,54.27938806640625ZM55.3771244140625,56.08913806640625L55.7619244140625,55.48351806640625L54.3369244140625,55.48351806640625L53.9450244140625,56.08913806640625L51.7719244140625,56.08913806640625L51.4085244140625,55.48351806640625L49.9835244140625,55.48351806640625L50.3540244140625,56.08913806640625L47.9386244140625,56.08913806640625L48.0455244140625,57.05813806640625L57.6642244140625,57.05813806640625L57.6642244140625,56.08913806640625L55.3771244140625,56.08913806640625ZM53.417724414062505,49.34176806640625L53.417724414062505,49.02114806640625L57.521724414062504,49.02114806640625L57.521724414062504,48.09489506640625L53.4462244140625,48.09489506640625L53.4462244140625,47.57476806640625L52.1281244140625,47.57476806640625L52.1281244140625,48.09489506640625L48.0740244140625,48.09489506640625L48.1737244140625,49.02114806640625L52.1566244140625,49.02114806640625L52.1566244140625,49.34176806640625L48.7865244140625,49.34176806640625L48.8791244140625,50.22526806640625L56.8377244140625,50.22526806640625L56.8377244140625,49.34176806640625L53.417724414062505,49.34176806640625ZM66.8697244140625,48.80739806640625L66.8697244140625,53.53839806640625L68.1166244140625,53.53839806640625L68.1166244140625,49.15651806640625C68.1118244140625,49.06514806640625,68.1894244140625,48.99091806640625,68.2805244140625,48.99976806640625L70.9167244140625,48.99976806640625C71.0078244140625,48.99093806640625,71.0854244140625,49.06515806640625,71.0806244140625,49.15651806640625L71.0806244140625,53.53839806640625L72.2990244140625,53.53839806640625L72.2990244140625,48.80739806640625C72.3640244140625,48.30681606640625,71.9375244140625,47.88032206640625,71.4369244140625,47.94527106640625L67.70342441406251,47.94527106640625C67.21392441406249,47.90048406640625,66.8085244140625,48.31974206640625,66.8697244140625,48.80739806640625ZM69.94772441406249,53.36026806640625C70.1538244140625,52.62546806640625,70.25222441406251,51.86467806640625,70.2399244140625,51.10164806640625L70.2399244140625,49.32039806640625L68.9788244140625,49.32039806640625L68.9788244140625,51.06601806640625C68.9788244140625,53.20351806640625,68.36602441406251,54.62851806640625,66.00762441406249,56.12476806640625L66.40662441406249,57.36451806640625C67.53552441406251,56.76312806640625,68.51072441406251,55.90982806640625,69.2566244140625,54.87076806640625L69.2566244140625,56.01788806640625C69.2613244140625,56.59470806640625,69.7013244140625,57.07464806640625,70.2755244140625,57.12938806640625C70.8537244140625,57.22206806640625,71.4429244140625,57.22206806640625,72.0211244140625,57.12938806640625C72.59662441406249,57.07491806640625,73.0388244140625,56.595888066406246,73.0471244140625,56.01788806640625L73.0471244140625,54.73538806640625L71.82872441406249,54.55726806640625L71.82872441406249,55.754268066406254C71.82872441406249,55.91101806640625,71.70762441406251,55.99650806640625,71.55092441406251,56.02500806640625C71.29752441406251,56.08201806640625,71.03472441406251,56.08201806640625,70.7814244140625,56.02500806640625C70.63182441406249,56.02500806640625,70.5035244140625,55.911008066406254,70.5035244140625,55.754268066406254L70.5035244140625,53.33888806640625L69.94772441406249,53.36026806640625ZM65.60862441406249,51.82126806640625C65.8457244140625,51.39349806640625,66.04362441406249,50.945168066406254,66.2000244140625,50.48176806640625C66.2532244140625,50.29418806640625,66.2772244140625,50.099538066406254,66.2712244140625,49.90464806640625C66.2712244140625,49.48427806640625,66.0361244140625,49.27764806640625,65.55872441406251,49.27764806640625L65.4590244140625,49.27764806640625L65.4590244140625,47.58189458640625L64.2477244140625,47.58189458640625L64.2477244140625,49.25626806640625L63.0365244140625,49.25626806640625L63.1434244140625,50.35351806640625L65.0172244140625,50.35351806640625C64.6055244140625,51.49459806640625,63.8357244140625,52.47187806640625,62.8227244140625,53.13939806640625L63.207524414062505,54.42189806640625C63.5494244140625,54.17457806640625,63.873324414062495,53.90313806640625,64.1765244140625,53.60964806640625L64.1765244140625,57.27902806640625L65.35922441406251,57.27902806640625L65.35922441406251,52.29152806640625L65.8722244140625,54.14402806640625L66.9695244140625,54.14402806640625L66.2997244140625,51.81414806640625L65.60862441406249,51.82126806640625ZM85.72252441406249,50.48176806640625L85.72252441406249,51.10164806640625C85.72732441406251,51.19300806640625,85.64972441406249,51.26722806640625,85.5586244140625,51.25839806640625L83.6491244140625,51.25839806640625L83.6491244140625,50.48177806640625L85.72252441406249,50.48176806640625ZM85.72252441406249,49.53413806640625L83.6491244140625,49.53413806640625L83.6491244140625,48.80739806640625L85.5586244140625,48.80739806640625C85.6508244140625,48.80309806640625,85.72682441406249,48.87904806640625,85.72252441406249,48.97126806640625L85.72252441406249,49.53413806640625ZM85.48022441406249,54.13688806640625C86.2257244140625,54.39805806640625,86.9904244140625,54.60054806640625,87.7674244140625,54.74251806640625L87.98112441406249,53.581138066406254C86.6502244140625,53.41744806640625,85.36982441406249,52.97041806640625,84.2263244140625,52.27014806640625L86.1286244140625,52.27014806640625C86.6170244140625,52.30118806640625,87.02182441406251,51.89643806640625,86.9908244140625,51.40801806640625L86.9908244140625,48.66489806640625C87.02182441406251,48.17647806640625,86.6170244140625,47.77173406640625,86.1286244140625,47.80277306640625L79.87292441406251,47.80277306640625C79.3845244140625,47.77173406640625,78.9797244140625,48.17647806640625,79.01072441406251,48.66489806640625L79.01072441406251,51.38664806640625C78.9797244140625,51.87506806640625,79.3845244140625,52.27980806640625,79.87292441406251,52.24876806640625L81.6399244140625,52.24876806640625C80.4904244140625,52.91574806640625,79.22252441406249,53.35369806640625,77.9064244140625,53.53839806640625L78.15572441406249,54.67839806640625C78.9079244140625,54.52578806640625,79.6502244140625,54.32830806640625,80.3787244140625,54.08701806640625L80.3787244140625,54.38626806640625C80.3787244140625,55.24126806640625,79.9370244140625,55.754268066406254,78.5334244140625,56.13188806640625L78.8682244140625,57.30038806640625C81.0057244140625,56.67338806640625,81.71822441406249,55.87538806640625,81.71822441406249,54.40051806640625L81.71822441406249,53.85900806640625L81.0057244140625,53.85900806640625C81.75472441406251,53.57023806640625,82.4309244140625,53.12022806640625,82.9865244140625,52.540888066406254C83.5476244140625,53.09226806640625,84.20112441406249,53.54082806640625,84.91742441406251,53.86613806640625L84.2049244140625,53.86613806640625L84.2049244140625,57.28613806640625L85.51592441406251,57.28613806640625L85.48022441406249,54.13688806640625ZM82.33812441406249,51.28688806640625L80.4429244140625,51.28688806640625C80.35182441406249,51.29572806640625,80.2742244140625,51.22149806640625,80.27902441406249,51.130138066406246L80.27902441406249,50.51026806640625L82.33812441406249,50.51026806640625L82.33812441406249,51.28688806640625ZM82.33812441406249,49.56264806640625L80.27902441406249,49.56264806640625L80.27902441406249,49.02826806640625C80.27472441406249,48.93603806640625,80.35062441406251,48.86009806640625,80.4429244140625,48.86438806640625L82.33812441406249,48.86438806640625L82.33812441406249,49.56264806640625Z" fill="#10152E" fill-opacity="1" style="mix-blend-mode:passthrough"/></g></g><g><g><path d="M74.25840881347656,61.076668852539065C74.23750881347655,60.66811885253906,74.05250881347656,60.28531385253906,73.74540881347656,60.01504485253906C73.40270881347656,59.76740455253906,72.98460881347657,59.64651465253906,72.56260881347657,59.673042012539064C72.16360881347657,59.657582152539064,71.76910881347656,59.761800052539066,71.42980881347657,59.97229085253906C71.11430881347655,60.16280985253906,70.92630881347657,60.50882385253906,70.93810881347656,60.87715885253906C70.93160881347657,61.23681885253906,71.13070881347656,61.568718852539064,71.45110881347657,61.732158852539065C71.78030881347657,61.88073885253906,72.12110881347655,62.002258852539065,72.47000881347657,62.095538852539065C72.79150881347655,62.17727885253906,73.10600881347656,62.28448885253906,73.41050881347655,62.41615885253906C73.67660881347656,62.52545885253906,73.85080881347656,62.78401885253906,73.85230881347655,63.07165885253906C73.85060881347655,63.30601885253906,73.72250881347657,63.521218852539064,73.51740881347656,63.634538852539066C73.24700881347655,63.78204885253906,72.94170881347657,63.85345885253906,72.63390881347657,63.84115885253906C72.31280881347656,63.86260885253906,71.99380881347656,63.774708852539064,71.72900881347655,63.59178885253906C71.48960881347656,63.368998852539065,71.34430881347657,63.063148852539065,71.32290881347656,62.736788852539064L70.82410881347656,62.736788852539064C70.82610881347657,63.20843885253906,71.03760881347657,63.65482885253906,71.40130881347656,63.955158852539064C71.76390881347656,64.19983885253906,72.19730881347655,64.31758885253906,72.63390881347657,64.29003885253906C73.07570881347655,64.31320885253906,73.51390881347656,64.19868885253906,73.88790881347657,63.96228885253906C74.19310881347656,63.757898852539064,74.37100881347656,63.41026885253906,74.35810881347656,63.043158852539065C74.36570881347657,62.64978885253906,74.15060881347657,62.285838852539065,73.80240881347656,62.10266885253906C73.43450881347655,61.918248852539065,73.04740881347657,61.77487885253906,72.64810881347657,61.67516885253906C72.36710881347656,61.60456885253906,72.09290881347655,61.509198852539065,71.82880881347657,61.39016885253906C71.61000881347655,61.30102885253906,71.46190881347655,61.09404885253906,71.44820881347655,60.85819885253906C71.43450881347655,60.622347852539065,71.55760881347656,60.39963185253906,71.76460881347657,60.28578685253906C72.00500881347656,60.164820852539066,72.27260881347655,60.10835285253906,72.54130881347656,60.12190985253906C72.84000881347657,60.10307985253906,73.13640881347656,60.18595585253906,73.38200881347656,60.35703585253906C73.58840881347656,60.54133085253906,73.72020881347656,60.794768852539065,73.75250881347657,61.06953885253906L74.25840881347656,61.076668852539065ZM32.79090881347656,59.76567045253906L34.77878881347656,59.76567045253906C35.131508813476565,59.74680775253906,35.47960881347656,59.85275385253906,35.76202881347656,60.064918852539066C35.998828813476564,60.26937585253906,36.127728813476566,60.57188085253906,36.111158813476564,60.88429885253906C36.11734881347656,61.11641885253906,36.04726881347656,61.34417885253906,35.91165881347656,61.53266885253906C35.767948813476565,61.69807885253906,35.580138813476566,61.81917885253906,35.370158813476564,61.88179885253906C35.64412881347656,61.911618852539064,35.89763881347656,62.040918852539065,36.08265881347656,62.24516885253906C36.249098813476564,62.44475885253906,36.33768881347656,62.69784885253906,36.33202881347656,62.957668852539065C36.35680881347656,63.341238852539064,36.18166881347656,63.71038885253906,35.86889881347656,63.93379885253906C35.54419881347656,64.12604885253906,35.16982881347656,64.21778885253906,34.79302881347656,64.19742885253906L32.79090881347656,64.19742885253906L32.79090881347656,59.75854935253906L32.79090881347656,59.76567045253906ZM33.303909813476565,60.193169852539064L33.303909813476565,61.70366885253906L34.650538813476565,61.70366885253906C34.902638813476564,61.71871885253906,35.15276881347656,61.651188852539065,35.363038813476564,61.51129885253906C35.53112881347656,61.367988852539064,35.62323881347656,61.15480885253906,35.61240881347656,60.93417885253906C35.620588813476566,60.71963885253906,35.53158881347656,60.512840852539064,35.370158813476564,60.37129985253906C35.15757881347656,60.23782585253906,34.90804881347656,60.175436852539065,34.657658813476566,60.193174852539066L33.303909813476565,60.193169852539064ZM33.303909813476565,62.13116885253906L33.303909813476565,63.769918852539064L34.728908813476565,63.769918852539064C34.97788881347656,63.773818852539065,35.22354881347656,63.71240885253906,35.44140881347656,63.59178885253906C35.65858881347656,63.45304885253906,35.78391881347656,63.20783885253906,35.769158813476565,62.95053885253906C35.79071881347656,62.704018852539065,35.68282881347656,62.46394885253906,35.48415881347656,62.316418852539066C35.250268813476566,62.16942885253906,34.976108813476564,62.09964885253906,34.700408813476564,62.116918852539065L33.27540881347656,62.116918852539065L33.303909813476565,62.13116885253906ZM40.94902881347656,59.879667852539065C41.027418813476565,59.94394185253906,41.06989881347656,60.04215885253906,41.06303881347657,60.143294852539064C41.06396881347656,60.24539285253906,41.02271881347656,60.34335385253906,40.94902881347656,60.41404285253906C40.87587881347656,60.477697852539066,40.782368813476566,60.51307485253906,40.68540881347656,60.513791852539065C40.58620881347656,60.51352085253906,40.49030881347656,60.47819185253906,40.414658813476564,60.41404285253906C40.34357881347656,60.34215185253906,40.304978813476566,60.24434285253906,40.30777881347656,60.143294852539064C40.300338813476564,60.04356085253906,40.33985881347656,59.94606785253906,40.414658813476564,59.879667852539065C40.48556881347656,59.80711385253906,40.58405881347656,59.76824165253906,40.68540881347656,59.772791852539065C40.784308813476564,59.77026385253906,40.879808813476565,59.80897885253906,40.94902881347656,59.879667852539065ZM40.43602881347656,60.99116885253906L40.94902881347656,60.99116885253906L40.94902881347656,64.20453885253906L40.450278813476565,64.20453885253906L40.43602881347656,60.99116885253906ZM47.93150881347656,64.20453885253906L47.93150881347656,62.22378885253906Q47.93150881347656,60.89853885253906,46.734508813476566,60.89853885253906C46.53000881347656,60.89642885253906,46.32860881347656,60.94802885253906,46.15030881347656,61.048168852539064C45.973308813476564,61.14510885253906,45.82570881347657,61.28783885253906,45.72280881347656,61.46141885253906L45.72280881347656,60.99116885253906L45.22400881347656,60.99116885253906L45.22400881347656,64.20453885253906L45.72280881347656,64.20453885253906L45.72280881347656,62.266538852539064C45.724208813476565,62.00153885253906,45.826108813476566,61.74693885253906,46.007808813476565,61.554038852539065C46.160408813476565,61.39553885253906,46.372108813476565,61.30775885253906,46.59200881347656,61.31179885253906C47.15490881347657,61.31179885253906,47.43280881347656,61.62529885253906,47.43280881347656,62.25228885253906L47.43280881347656,64.19029885253906L47.93150881347656,64.20453885253906ZM54.48650881347656,61.26191885253906C54.688708813476566,61.50763885253906,54.79050881347656,61.82067885253906,54.77150881347656,62.138298852539066L54.77150881347656,64.20454885253906L54.30130881347657,64.20454885253906L54.30130881347657,63.66304885253906C54.17340881347656,63.84418885253906,54.00510881347657,63.99300885253906,53.80960881347656,64.09766885253906C53.563208813476564,64.22563885253906,53.289308813476566,64.29166885253906,53.01160881347656,64.29004885253906C52.73390881347656,64.30781885253906,52.459608813476564,64.22144885253905,52.24210881347656,64.04779885253906C52.03460881347657,63.87149885253906,51.92350881347656,63.60689885253906,51.94290881347656,63.33529885253906C51.920008813476564,62.968168852539065,52.11170881347656,62.620968852539065,52.43450881347656,62.44466885253906C52.762708813476564,62.26985885253906,53.13180881347657,62.18620885253906,53.503308813476565,62.202428852539065L54.27280881347656,62.202428852539065L54.27280881347656,62.09554885253906C54.27280881347656,61.55404885253906,53.99490881347656,61.28329885253906,53.432008813476564,61.28329885253906C53.217808813476566,61.271868852539065,53.00560881347656,61.329288852539065,52.82640881347656,61.44717885253906C52.66020881347656,61.56328885253906,52.55140881347656,61.74467885253906,52.52710881347656,61.94592885253906L52.06400881347656,61.94592885253906C52.09100881347656,61.614498852539064,52.26310881347656,61.31194885253906,52.534308813476564,61.11941885253906C52.82190881347656,60.94003885253906,53.157608813476564,60.853018852539066,53.49610881347657,60.870048852539064C53.866508813476564,60.85642885253906,54.22570881347656,60.99854885253906,54.48650881347656,61.26191885253906ZM54.27280881347656,62.61566885253906L53.56030881347657,62.61566885253906C52.84780881347656,62.61566885253906,52.47730881347656,62.86504885253906,52.47730881347656,63.328168852539065C52.47220881347656,63.479448852539065,52.53810881347656,63.624418852539065,52.65540881347656,63.720048852539065C52.79790881347657,63.82278885253906,52.971608813476564,63.873118852539065,53.14700881347656,63.862548852539064C53.450208813476564,63.869108852539064,53.74490881347656,63.76240885253906,53.97350881347656,63.56329885253906C54.18620881347656,63.38859885253906,54.307008813476564,63.12598885253906,54.30130881347657,62.850798852539064L54.27280881347656,62.61566885253906ZM60.75650881347656,61.475668852539066L60.75650881347656,60.976918852539065C60.61610881347656,60.92103885253906,60.46580881347656,60.89436885253906,60.31480881347656,60.898548852539065C60.10190881347656,60.897118852539066,59.89520881347656,60.97021885253906,59.73050881347656,61.10517885253906C59.58570881347656,61.22399885253906,59.47090881347656,61.375358852539065,59.395608813476564,61.54692885253906L59.395608813476564,60.991178852539065L58.904008813476565,60.991178852539065L58.904008813476565,64.20454885253906L59.395608813476564,64.20454885253906L59.395608813476564,62.501678852539065C59.38780881347657,62.22296885253906,59.47860881347656,61.95042885253906,59.65210881347656,61.732178852539064C59.79470881347656,61.52668885253906,60.029008813476565,61.40421885253906,60.27910881347656,61.40442885253906C60.45060881347656,61.398858852539064,60.62180881347656,61.42295885253906,60.785008813476566,61.475668852539066L60.75650881347656,61.475668852539066ZM64.17650881347656,60.99116885253906L64.71800881347656,60.99116885253906L65.70130881347657,63.527668852539065L66.65600881347656,60.99116885253906L67.20460881347657,60.99116885253906L65.44480881347656,65.43716885253906L64.90330881347657,65.43716885253906L65.45190881347656,64.13328885253907L64.17650881347656,60.99116885253906ZM80.77060881347657,61.42579885253906C81.02830881347657,61.813258852539064,81.15790881347655,62.27178885253906,81.14120881347657,62.73679885253906L78.60470881347656,62.73679885253906C78.60500881347656,63.04186885253906,78.70790881347656,63.33796885253906,78.89680881347655,63.57754885253906C79.07700881347657,63.779638852539065,79.33880881347656,63.889598852539066,79.60930881347656,63.876788852539065C79.83950881347656,63.88523885253906,80.06570881347656,63.81485885253906,80.25050881347656,63.677288852539064C80.40340881347656,63.542668852539066,80.51470881347656,63.36715885253906,80.57110881347657,63.17141885253906L81.06990881347656,63.17141885253906C81.00530881347656,63.46358885253906,80.85380881347656,63.72936885253906,80.63530881347657,63.93379885253906C80.34930881347657,64.17564885253907,79.98360881347656,64.30260885253907,79.60930881347656,64.29004885253906C79.19320881347656,64.30898885253906,78.78970881347657,64.14498885253906,78.50490881347656,63.84116885253906C78.20820881347656,63.49550885253906,78.05520881347655,63.04929885253906,78.07740881347655,62.59429885253906C78.06030881347655,62.16098885253906,78.20500881347655,61.73682885253906,78.48350881347656,61.40441885253906C78.75180881347657,61.07173885253906,79.16080881347656,60.88440885253906,79.58790881347656,60.898548852539065C80.05490881347657,60.85749885253906,80.51090881347656,61.05599885253906,80.79910881347656,61.425788852539064L80.77060881347657,61.42579885253906ZM78.91810881347656,61.59679885253906C78.73590881347656,61.80749885253906,78.63040881347656,62.07370885253906,78.61890881347657,62.35203885253906L80.62810881347656,62.35203885253906C80.56400881347656,61.63953885253906,80.22200881347656,61.31891885253906,79.60930881347656,61.31891885253906C79.35430881347656,61.32614885253906,79.11400881347656,61.43983885253906,78.94660881347656,61.63241885253906L78.91810881347656,61.59679885253906ZM87.95260881347656,62.73679885253906C87.96940881347656,62.27178885253906,87.83980881347657,61.813258852539064,87.58210881347657,61.42579885253906C86.97780881347657,60.738018852539064,85.90650881347656,60.738018852539064,85.30210881347656,61.42579885253906C84.75590881347657,62.14618885253906,84.75590881347657,63.142148852539066,85.30210881347656,63.862548852539064C85.58700881347656,64.16636885253907,85.99050881347657,64.33036885253907,86.40650881347656,64.31141885253906C87.10370881347657,64.34847885253906,87.72510881347657,63.87489885253906,87.87430881347656,63.19278885253906L87.37550881347656,63.19278885253906C87.31400881347656,63.38791885253906,87.20070881347655,63.56273885253906,87.04780881347656,63.698668852539065C86.86300881347657,63.83623885253906,86.63670881347656,63.90661885253906,86.40650881347656,63.898168852539065C86.13600881347656,63.91097885253906,85.87420881347657,63.80101885253906,85.69400881347656,63.598918852539065C85.50940881347657,63.35703885253906,85.40700881347657,63.06241885253906,85.40190881347655,62.758168852539065L87.95260881347656,62.73679885253906ZM85.43040881347656,62.35203885253906C85.44450881347656,62.07295885253906,85.55250881347656,61.80681885253906,85.73680881347656,61.59679885253906C85.91980881347656,61.40085885253906,86.18190881347655,61.29862885253906,86.44930881347656,61.31891885253906C87.06910881347656,61.31891885253906,87.40400881347657,61.66091885253906,87.46810881347656,62.35203885253906L85.43040881347656,62.35203885253906Z" fill-rule="evenodd" fill="#10152E" fill-opacity="1" style="mix-blend-mode:passthrough"/></g></g></g></g><g><g><path d="M45.56600107421875,19.851393896484375L45.75840107421875,19.851393896484375C47.87750107421875,19.884093896484373,49.94340107421875,20.519193896484374,51.71490107421875,21.682493896484374L51.86450107421875,21.782293896484376L51.96430107421875,21.846393896484376L51.86450107421875,21.767993896484377L51.999901074218755,21.874893896484373L52.092501074218745,21.938993896484376L52.292001074218746,22.081493896484375C52.42030107421875,22.181293896484377,52.54850107421875,22.273893896484374,52.67680107421875,22.380793896484377L52.86200107421875,22.537493896484374L52.919001074218755,22.587393896484375L56.18940107421875,25.138093896484374L63.82030107421875,31.115993896484376L65.60870107421874,32.54099389648437L66.54200107421875,33.25349389648437L66.97670107421875,33.58839389648438L67.34720107421876,33.866193896484376L67.66070107421875,34.09429389648437L67.81740107421875,34.20109389648438L67.90290107421875,34.26519389648438L68.03830107421875,34.350793896484376C69.07080107421875,35.108493896484376,70.32010107421874,35.51329389648437,71.60080107421875,35.50499389648438L71.85020107421875,35.50499389648438C75.22490107421875,35.441093896484375,78.01610107421875,32.858293896484376,78.34100107421875,29.498593896484376L78.34100107421875,29.391793896484376L85.31640107421876,29.391793896484376L85.31640107421876,29.569893896484373C84.92860107421875,36.70359389648438,79.09310107421875,42.324393896484374,71.94990107421876,42.44479389648438L71.58650107421875,42.44479389648438C68.28050107421875,42.394893896484376,65.46620107421874,41.01979389648437,62.92250107421875,39.145893896484374L49.84100107421875,29.270593896484375L48.29490107421875,28.144893896484376L48.07400107421875,27.952493896484373L47.86740107421875,27.809993896484375C47.15350107421875,27.231293896484374,46.27670107421875,26.889993896484373,45.35940107421875,26.833893896484376L45.13850107421875,26.833893896484376C42.83809107421875,26.898093896484376,40.99380107421875,28.758093896484375,40.94904107421875,31.058993896484374L40.94904107421875,31.251393896484377C40.97581107421875,33.56809389648437,42.84326107421875,35.44189389648437,45.15990107421875,35.47649389648437L45.35940107421875,35.47649389648437Q48.009901074218746,35.47649389648437,49.99070107421875,32.48399389648438L50.06900107421875,32.36289389648438L55.583801074218755,36.38849389648438L55.51970107421875,36.51679389648437C53.57770107421875,40.12399389648438,49.83340107421875,42.395693896484374,45.73700107421875,42.45189389648438L45.40220107421875,42.45189389648438C39.26977107421875,42.297893896484375,34.37860107421875,37.28239389648438,34.37860107421875,31.148093896484376C34.37860651015875,25.013693896484376,39.26977107421875,19.998193896484374,45.40220107421875,19.844293896484373L45.56600107421875,19.851393896484375ZM75.98980107421875,13.182373896484375L76.11090107421876,13.253623896484374C76.58830107421875,13.534383896484375,77.10450107421875,13.743263896484375,77.64280107421875,13.873493896484375L77.72120107421875,13.873493896484375L77.80670107421875,13.873493896484375C78.34320107421874,13.910413896484375,78.88190107421875,13.847603896484376,79.39550107421874,13.688243896484375L79.52380107421875,13.652623896484375L82.67300107421875,16.808993896484374L75.96840107421875,23.520793896484374L83.49240107421875,23.520793896484374L83.49240107421875,21.098293896484375L85.40190107421876,21.098293896484375L85.43750107421874,21.233593896484376C85.55770107421876,21.690893896484376,85.74500107421875,22.127893896484373,85.99330107421875,22.530393896484377L86.03600107421875,22.594493896484373L86.08590107421875,22.658593896484376C86.39570107421875,23.004093896484378,86.76490107421876,23.291293896484376,87.17600107421876,23.506493896484375L87.28290107421876,23.563493896484374L87.28290107421876,27.432393896484374L78.18430107421875,27.432393896484374L78.18430107421875,27.289893896484376C77.86100107421875,25.873693896484376,77.08270107421875,24.602393896484376,75.96840107421875,23.670393896484377L75.82590107421875,23.556393896484373C74.69700107421875,22.660593896484375,73.30530107421875,22.159993896484373,71.86440107421875,22.131393896484376L71.52240107421875,22.131393896484376L71.26590107421876,22.131393896484376L71.13770107421874,22.131393896484376L76.46000107421875,16.744873896484375L74.43650107421874,14.749873896484374L75.98980107421875,13.182373896484375ZM71.10920107421876,22.109993896484376C68.72310107421875,22.332893896484375,66.64110107421875,23.821593896484373,65.65850107421875,26.007393896484373L65.65850107421875,15.077623896484376L62.15300107421875,15.077623896484376L62.15300107421875,12.377243896484375C62.914701074218755,12.208153896484376,63.639001074218754,11.901513896484374,64.29050107421875,11.472373896484376C64.88720107421875,10.995713896484375,65.37340107421875,10.395280896484374,65.71550107421875,9.712493896484375L71.19470107421876,9.712493896484375L71.10920107421876,22.109993896484376Z" fill-rule="evenodd" fill="url(#master_svg2_124_034)" fill-opacity="1" style="mix-blend-mode:passthrough"/></g></g></g></g></g></svg>